<?xml version="1.0" encoding="utf-8"?>
<!-- Generator: Adobe Illustrator 19.1.0, SVG Export Plug-In . SVG Version: 6.00 Build 0)  -->
<svg version="1.1" xmlns="http://www.w3.org/2000/svg" xmlns:xlink="http://www.w3.org/1999/xlink" x="0px" y="0px"
	 viewBox="0 0 374.775 69.02" style="enable-background:new 0 0 374.775 69.02;" xml:space="preserve">
<style type="text/css">
	.st0{display:none;}
	.st1{display:inline;}
	.st2{fill:#F9A220;}
	.st3{fill:url(#SVGID_1_);}
	.st4{opacity:0.5;fill:url(#SVGID_2_);}
	.st5{fill:url(#SVGID_3_);}
	.st6{fill:#231F20;}
	.st7{fill:#FFFFFF;}
	.st8{fill:#929497;}
	.st9{fill:url(#SVGID_4_);}
	.st10{opacity:0.5;fill:url(#SVGID_5_);}
	.st11{fill:url(#SVGID_6_);}
	.st12{fill:url(#SVGID_7_);}
	.st13{opacity:0.5;fill:url(#SVGID_8_);}
	.st14{fill:url(#SVGID_9_);}
	.st15{fill:#00814E;}
	.st16{fill:#72B043;}
	.st17{fill:#C7C7C6;}
	.st18{fill:#F8CC1A;}
	.st19{fill:#F27425;}
	.st20{fill:#E02429;}
	.st21{fill:#E6E7E8;}
</style>
<g id="Black_Bg" class="st0">
</g>
<g id="Logo_on_black">
</g>
<g id="Stars">
	<g>
		<path class="st17" d="M69.02,61.74c0,4.02-3.26,7.28-7.28,7.28H7.28c-4.02,0-7.28-3.26-7.28-7.28V7.28C0,3.26,3.26,0,7.28,0h54.46
			c4.02,0,7.28,3.26,7.28,7.28V61.74z"/>
		<polygon class="st21" points="34.51,11.14 40.311,28.993 59.083,28.993 43.896,40.027 49.697,57.88 34.51,46.846 19.323,57.88 
			25.124,40.027 9.937,28.993 28.709,28.993 		"/>
		<path class="st17" d="M145.459,61.74c0,4.02-3.26,7.28-7.28,7.28h-54.46c-4.02,0-7.28-3.26-7.28-7.28V7.28
			c0-4.02,3.26-7.28,7.28-7.28h54.46c4.02,0,7.28,3.26,7.28,7.28V61.74z"/>
		<polygon class="st21" points="110.949,11.14 116.75,28.993 135.522,28.993 120.335,40.027 126.136,57.88 110.949,46.846 
			95.762,57.88 101.563,40.027 86.376,28.993 105.148,28.993 		"/>
		<path class="st17" d="M221.898,61.74c0,4.02-3.26,7.28-7.28,7.28h-54.46c-4.02,0-7.28-3.26-7.28-7.28V7.28
			c0-4.02,3.26-7.28,7.28-7.28h54.46c4.02,0,7.28,3.26,7.28,7.28V61.74z"/>
		<polygon class="st21" points="187.388,11.14 193.189,28.993 211.961,28.993 196.774,40.027 202.575,57.88 187.388,46.846 
			172.201,57.88 178.002,40.027 162.815,28.993 181.586,28.993 		"/>
		<path class="st17" d="M298.336,61.74c0,4.02-3.26,7.28-7.28,7.28h-54.46c-4.02,0-7.28-3.26-7.28-7.28V7.28
			c0-4.02,3.26-7.28,7.28-7.28h54.46c4.02,0,7.28,3.26,7.28,7.28V61.74z"/>
		<polygon class="st21" points="263.826,11.14 269.628,28.993 288.4,28.993 273.212,40.027 279.014,57.88 263.826,46.846 
			248.639,57.88 254.44,40.027 239.253,28.993 258.025,28.993 		"/>
		<path class="st17" d="M374.775,61.74c0,4.02-3.26,7.28-7.28,7.28h-54.46c-4.02,0-7.28-3.26-7.28-7.28V7.28
			c0-4.02,3.26-7.28,7.28-7.28h54.46c4.02,0,7.28,3.26,7.28,7.28V61.74z"/>
		<polygon class="st21" points="340.265,11.14 346.066,28.993 364.838,28.993 349.651,40.027 355.452,57.88 340.265,46.846 
			325.078,57.88 330.879,40.027 315.692,28.993 334.464,28.993 		"/>
	</g>
</g>
</svg>
