<?xml version="1.0" encoding="utf-8"?>
<!-- Generator: Adobe Illustrator 19.1.0, SVG Export Plug-In . SVG Version: 6.00 Build 0)  -->
<svg version="1.1" xmlns="http://www.w3.org/2000/svg" xmlns:xlink="http://www.w3.org/1999/xlink" x="0px" y="0px"
	 viewBox="0 0 374.775 69.022" style="enable-background:new 0 0 374.775 69.022;" xml:space="preserve">
<style type="text/css">
	.st0{display:none;}
	.st1{display:inline;}
	.st2{fill:#F9A220;}
	.st3{fill:url(#SVGID_1_);}
	.st4{opacity:0.5;fill:url(#SVGID_2_);}
	.st5{fill:url(#SVGID_3_);}
	.st6{fill:#231F20;}
	.st7{fill:#FFFFFF;}
	.st8{fill:#929497;}
	.st9{fill:url(#SVGID_4_);}
	.st10{opacity:0.5;fill:url(#SVGID_5_);}
	.st11{fill:url(#SVGID_6_);}
	.st12{fill:url(#SVGID_7_);}
	.st13{opacity:0.5;fill:url(#SVGID_8_);}
	.st14{fill:url(#SVGID_9_);}
	.st15{fill:#00814E;}
	.st16{fill:#72B043;}
	.st17{fill:#C7C7C6;}
	.st18{fill:#F8CC1A;}
	.st19{fill:#F27425;}
	.st20{fill:#E02429;}
	.st21{fill:#E6E7E8;}
</style>
<g id="Black_Bg" class="st0">
</g>
<g id="Logo_on_black">
</g>
<g id="Stars">
	<g>
		<path class="st19" d="M69.02,61.742c0,4.02-3.26,7.28-7.28,7.28H7.28c-4.02,0-7.28-3.26-7.28-7.28V7.28C0,3.26,3.26,0,7.28,0
			h54.46c4.02,0,7.28,3.26,7.28,7.28V61.742z"/>
		<polygon class="st7" points="34.51,11.142 40.311,28.995 59.083,28.995 43.896,40.029 49.697,57.882 34.51,46.848 19.323,57.882 
			25.124,40.029 9.937,28.995 28.709,28.995 		"/>
		<path class="st19" d="M145.459,61.742c0,4.02-3.26,7.28-7.28,7.28h-54.46c-4.02,0-7.28-3.26-7.28-7.28V7.28
			c0-4.02,3.26-7.28,7.28-7.28h54.46c4.02,0,7.28,3.26,7.28,7.28V61.742z"/>
		<polygon class="st7" points="110.949,11.142 116.75,28.995 135.522,28.995 120.335,40.029 126.136,57.882 110.949,46.848 
			95.762,57.882 101.563,40.029 86.376,28.995 105.148,28.995 		"/>
		<path class="st17" d="M221.898,61.742c0,4.02-3.26,7.28-7.28,7.28h-54.46c-4.02,0-7.28-3.26-7.28-7.28V7.28
			c0-4.02,3.26-7.28,7.28-7.28h54.46c4.02,0,7.28,3.26,7.28,7.28V61.742z"/>
		<polygon class="st7" points="187.388,11.142 193.189,28.995 211.961,28.995 196.774,40.029 202.575,57.882 187.388,46.848 
			172.201,57.882 178.002,40.029 162.815,28.995 181.586,28.995 		"/>
		<path class="st17" d="M298.336,61.742c0,4.02-3.26,7.28-7.28,7.28h-54.46c-4.02,0-7.28-3.26-7.28-7.28V7.28
			c0-4.02,3.26-7.28,7.28-7.28h54.46c4.02,0,7.28,3.26,7.28,7.28V61.742z"/>
		<polygon class="st7" points="263.826,11.142 269.628,28.995 288.4,28.995 273.212,40.029 279.014,57.882 263.826,46.848 
			248.639,57.882 254.44,40.029 239.253,28.995 258.025,28.995 		"/>
		<path class="st17" d="M374.775,61.742c0,4.02-3.26,7.28-7.28,7.28h-54.46c-4.02,0-7.28-3.26-7.28-7.28V7.28
			c0-4.02,3.26-7.28,7.28-7.28h54.46c4.02,0,7.28,3.26,7.28,7.28V61.742z"/>
		<polygon class="st7" points="340.265,11.142 346.066,28.995 364.838,28.995 349.651,40.029 355.452,57.882 340.265,46.848 
			325.078,57.882 330.879,40.029 315.692,28.995 334.464,28.995 		"/>
	</g>
</g>
</svg>
