<?xml version="1.0" encoding="utf-8"?>
<!-- Generator: Adobe Illustrator 19.1.0, SVG Export Plug-In . SVG Version: 6.00 Build 0)  -->
<svg version="1.1" xmlns="http://www.w3.org/2000/svg" xmlns:xlink="http://www.w3.org/1999/xlink" x="0px" y="0px"
	 viewBox="0 0 516.131 58.174" style="enable-background:new 0 0 516.131 58.174;" xml:space="preserve">
<style type="text/css">
	.st0{display:none;}
	.st1{display:inline;}
	.st2{fill:#F9A220;}
	.st3{fill:url(#SVGID_1_);}
	.st4{opacity:0.5;fill:url(#SVGID_2_);}
	.st5{fill:url(#SVGID_3_);}
	.st6{fill:#231F20;}
	.st7{fill:#FFFFFF;}
	.st8{fill:#929497;}
	.st9{fill:url(#SVGID_4_);}
	.st10{opacity:0.5;fill:url(#SVGID_5_);}
	.st11{fill:url(#SVGID_6_);}
	.st12{fill:url(#SVGID_7_);}
	.st13{opacity:0.5;fill:url(#SVGID_8_);}
	.st14{fill:url(#SVGID_9_);}
	.st15{fill:#00814E;}
	.st16{fill:#72B043;}
	.st17{fill:#C7C7C6;}
	.st18{fill:#F8CC1A;}
	.st19{fill:#F27425;}
	.st20{fill:#E02429;}
	.st21{fill:#E6E7E8;}
</style>
<g id="Black_Bg" class="st0">
	<rect x="-81.554" y="-41.547" class="st1" width="667" height="142"/>
</g>
<g id="Logo_on_black">
	<g>
		<g>
			<path class="st7" d="M119.41,3.316c0,0.558-0.029,1.058-0.088,1.472c-0.068,0.424-0.161,0.757-0.296,1.011
				c-0.135,0.25-0.3,0.436-0.487,0.558c-0.199,0.119-0.414,0.177-0.655,0.177h-16.285v50.202c0,0.245-0.063,0.449-0.181,0.63
				c-0.119,0.178-0.329,0.322-0.626,0.423c-0.3,0.103-0.693,0.198-1.184,0.275c-0.494,0.064-1.112,0.11-1.856,0.11
				c-0.715,0-1.328-0.047-1.836-0.11c-0.512-0.077-0.909-0.172-1.213-0.275c-0.296-0.101-0.5-0.245-0.622-0.423
				c-0.119-0.181-0.178-0.385-0.178-0.63V6.534H77.611c-0.238,0-0.449-0.058-0.647-0.177c-0.191-0.122-0.347-0.309-0.466-0.558
				c-0.122-0.254-0.219-0.587-0.296-1.011c-0.072-0.413-0.106-0.913-0.106-1.472c0-0.57,0.034-1.069,0.106-1.499
				c0.077-0.437,0.173-0.787,0.296-1.053c0.119-0.263,0.275-0.462,0.466-0.584c0.198-0.114,0.409-0.178,0.647-0.178h40.273
				c0.241,0,0.456,0.064,0.655,0.178c0.186,0.122,0.352,0.322,0.487,0.584c0.135,0.266,0.228,0.616,0.296,1.053
				C119.38,2.247,119.41,2.746,119.41,3.316z"/>
			<path class="st7" d="M168.812,56.736c0,0.245-0.042,0.449-0.144,0.63c-0.084,0.178-0.274,0.331-0.574,0.439
				c-0.301,0.127-0.714,0.211-1.252,0.277c-0.537,0.058-1.256,0.092-2.148,0.092c-0.778,0-1.412-0.034-1.903-0.092
				c-0.49-0.065-0.884-0.161-1.184-0.294c-0.3-0.129-0.533-0.316-0.694-0.561c-0.169-0.234-0.309-0.529-0.431-0.897l-5.319-13.645
				c-0.625-1.548-1.282-2.978-1.945-4.272c-0.673-1.294-1.471-2.41-2.398-3.356c-0.926-0.937-2.012-1.671-3.264-2.187
				c-1.251-0.524-2.757-0.785-4.516-0.785h-5.151v24.651c0,0.245-0.064,0.449-0.203,0.63c-0.135,0.178-0.338,0.322-0.625,0.423
				c-0.288,0.103-0.668,0.198-1.158,0.275c-0.495,0.064-1.112,0.11-1.861,0.11c-0.744,0-1.361-0.047-1.852-0.11
				c-0.495-0.077-0.892-0.172-1.192-0.275c-0.296-0.101-0.498-0.245-0.626-0.423c-0.114-0.181-0.173-0.385-0.173-0.63V3.139
				c0-1.167,0.3-1.978,0.918-2.444c0.609-0.46,1.255-0.694,1.944-0.694h12.301c1.463,0,2.681,0.043,3.649,0.114
				c0.968,0.069,1.843,0.161,2.618,0.251c2.236,0.384,4.211,0.997,5.928,1.83c1.714,0.833,3.155,1.89,4.322,3.179
				c1.159,1.278,2.034,2.753,2.613,4.406c0.583,1.649,0.871,3.481,0.871,5.476c0,1.946-0.263,3.679-0.787,5.218
				c-0.519,1.531-1.268,2.889-2.253,4.068c-0.985,1.18-2.16,2.199-3.535,3.066c-1.37,0.869-2.91,1.597-4.613,2.193
				c0.965,0.415,1.822,0.944,2.6,1.582c0.774,0.647,1.493,1.417,2.17,2.305c0.668,0.901,1.302,1.929,1.907,3.1
				c0.587,1.15,1.188,2.47,1.785,3.936l5.188,12.746c0.419,1.075,0.685,1.832,0.808,2.259
				C168.744,56.166,168.812,56.499,168.812,56.736z M157.221,16.065c0-2.266-0.508-4.186-1.522-5.75
				c-1.015-1.56-2.715-2.691-5.099-3.376c-0.749-0.21-1.59-0.357-2.528-0.452c-0.942-0.089-2.169-0.131-3.692-0.131h-6.491v19.511
				h7.519c2.029,0,3.775-0.251,5.26-0.74c1.476-0.495,2.706-1.18,3.687-2.06c0.985-0.883,1.709-1.915,2.173-3.107
				C156.989,18.767,157.221,17.466,157.221,16.065z"/>
			<path class="st7" d="M220.38,36.211c0,3.463-0.498,6.555-1.514,9.27c-1.01,2.722-2.457,5.014-4.343,6.895
				c-1.878,1.877-4.169,3.298-6.871,4.267c-2.694,0.978-5.767,1.46-9.201,1.46c-3.147,0-6.005-0.456-8.593-1.367
				c-2.579-0.909-4.799-2.253-6.651-4.033c-1.849-1.776-3.269-4.005-4.267-6.665c-0.998-2.676-1.497-5.759-1.497-9.247V1.414
				c0-0.236,0.055-0.437,0.173-0.622c0.118-0.174,0.325-0.312,0.613-0.414c0.296-0.102,0.676-0.193,1.15-0.263
				c0.466-0.077,1.082-0.114,1.848-0.114c0.706,0,1.307,0.037,1.806,0.114c0.495,0.069,0.888,0.161,1.167,0.263
				c0.275,0.102,0.478,0.24,0.596,0.414c0.118,0.185,0.177,0.385,0.177,0.622v34.442c0,2.648,0.321,4.951,0.965,6.914
				c0.651,1.971,1.582,3.607,2.798,4.912c1.214,1.309,2.686,2.298,4.407,2.954c1.712,0.658,3.645,0.993,5.793,0.993
				c2.199,0,4.16-0.318,5.873-0.976c1.725-0.639,3.176-1.608,4.368-2.902c1.188-1.296,2.093-2.896,2.723-4.809
				c0.639-1.898,0.952-4.13,0.952-6.688V1.414c0-0.236,0.058-0.437,0.178-0.622c0.118-0.174,0.322-0.312,0.613-0.414
				c0.296-0.102,0.685-0.193,1.167-0.263c0.486-0.077,1.099-0.114,1.831-0.114c0.706,0,1.298,0.037,1.779,0.114
				c0.487,0.069,0.867,0.161,1.146,0.263c0.284,0.102,0.486,0.24,0.621,0.414c0.132,0.185,0.191,0.385,0.191,0.622V36.211z"/>
			<path class="st7" d="M263.794,41.467c0,2.657-0.495,5.016-1.467,7.08c-0.977,2.066-2.329,3.816-4.056,5.254
				c-1.733,1.443-3.771,2.53-6.113,3.257c-2.347,0.724-4.863,1.092-7.574,1.092c-1.894,0-3.645-0.157-5.255-0.488
				c-1.62-0.316-3.058-0.705-4.326-1.174c-1.265-0.466-2.331-0.944-3.189-1.438c-0.858-0.495-1.45-0.914-1.78-1.266
				c-0.343-0.35-0.592-0.798-0.748-1.331c-0.161-0.54-0.242-1.264-0.242-2.165c0-0.638,0.029-1.167,0.089-1.589
				c0.055-0.423,0.143-0.766,0.262-1.028c0.114-0.262,0.262-0.443,0.431-0.546c0.177-0.101,0.385-0.151,0.613-0.151
				c0.406,0,0.985,0.251,1.725,0.74c0.744,0.497,1.695,1.04,2.862,1.613c1.162,0.589,2.567,1.135,4.207,1.632
				c1.646,0.512,3.544,0.77,5.697,0.77c1.628,0,3.126-0.211,4.478-0.654c1.353-0.439,2.517-1.056,3.497-1.853
				c0.964-0.804,1.721-1.785,2.244-2.947c0.516-1.163,0.778-2.487,0.778-3.971c0-1.606-0.363-2.977-1.082-4.106
				c-0.732-1.137-1.687-2.131-2.884-2.991c-1.197-0.856-2.554-1.643-4.085-2.354c-1.522-0.714-3.091-1.445-4.689-2.186
				c-1.603-0.737-3.163-1.561-4.673-2.466c-1.514-0.901-2.863-1.961-4.056-3.184c-1.197-1.223-2.165-2.661-2.909-4.3
				c-0.74-1.642-1.112-3.616-1.112-5.912c0-2.363,0.43-4.461,1.294-6.308c0.851-1.853,2.046-3.4,3.576-4.652
				c1.528-1.248,3.346-2.207,5.457-2.859c2.104-0.66,4.388-0.985,6.828-0.985c1.253,0,2.507,0.114,3.78,0.325
				c1.261,0.221,2.456,0.516,3.576,0.876c1.122,0.364,2.116,0.774,2.994,1.218c0.863,0.452,1.447,0.82,1.718,1.099
				c0.28,0.275,0.46,0.49,0.545,0.651c0.094,0.161,0.166,0.368,0.221,0.609c0.058,0.249,0.106,0.546,0.131,0.9
				c0.029,0.347,0.05,0.795,0.05,1.344c0,0.529-0.03,0.994-0.072,1.4c-0.039,0.41-0.11,0.756-0.199,1.032
				c-0.085,0.27-0.212,0.481-0.369,0.609c-0.16,0.126-0.342,0.198-0.544,0.198c-0.327,0-0.82-0.207-1.51-0.617
				c-0.681-0.406-1.514-0.858-2.508-1.374c-0.99-0.509-2.165-0.968-3.51-1.396c-1.357-0.418-2.88-0.635-4.567-0.635
				c-1.568,0-2.939,0.217-4.102,0.635c-1.163,0.427-2.128,0.99-2.88,1.678c-0.761,0.703-1.323,1.531-1.704,2.487
				c-0.376,0.965-0.567,1.989-0.567,3.062c0,1.569,0.364,2.919,1.092,4.059c0.727,1.137,1.695,2.141,2.9,3.01
				c1.214,0.871,2.588,1.675,4.128,2.397c1.543,0.727,3.116,1.468,4.714,2.214c1.603,0.739,3.167,1.556,4.715,2.438
				c1.543,0.894,2.912,1.933,4.131,3.143c1.2,1.213,2.174,2.634,2.913,4.283C263.422,37.294,263.794,39.231,263.794,41.467z"/>
			<path class="st7" d="M311.595,3.309c0,0.566-0.03,1.056-0.089,1.468c-0.064,0.419-0.156,0.76-0.291,1.01
				c-0.128,0.254-0.302,0.439-0.492,0.558c-0.191,0.123-0.411,0.177-0.649,0.177h-16.258v50.118c0,0.237-0.058,0.449-0.18,0.623
				c-0.116,0.181-0.327,0.325-0.623,0.43c-0.299,0.101-0.689,0.191-1.183,0.262c-0.496,0.077-1.113,0.116-1.853,0.116
				c-0.719,0-1.332-0.039-1.83-0.116c-0.513-0.071-0.91-0.161-1.206-0.262c-0.3-0.105-0.507-0.249-0.629-0.43
				c-0.116-0.174-0.179-0.385-0.179-0.623V6.521h-16.258c-0.236,0-0.452-0.054-0.648-0.177c-0.194-0.119-0.351-0.304-0.469-0.558
				c-0.114-0.25-0.215-0.591-0.293-1.01c-0.072-0.411-0.113-0.902-0.113-1.468c0-0.563,0.041-1.07,0.113-1.492
				c0.078-0.437,0.179-0.791,0.293-1.053c0.119-0.263,0.275-0.462,0.469-0.584c0.195-0.114,0.411-0.178,0.648-0.178h40.199
				c0.237,0,0.458,0.064,0.649,0.178c0.19,0.122,0.364,0.322,0.492,0.584c0.135,0.263,0.227,0.616,0.291,1.053
				C311.565,2.238,311.595,2.746,311.595,3.309z"/>
			<path class="st8" d="M356.316,16.957c0,2.896-0.477,5.506-1.438,7.836c-0.957,2.326-2.316,4.313-4.094,5.945
				c-1.772,1.645-3.95,2.915-6.533,3.807c-2.58,0.897-5.653,1.341-9.241,1.341h-6.574v20.85c0,0.245-0.073,0.449-0.204,0.63
				c-0.135,0.178-0.341,0.322-0.625,0.423c-0.28,0.103-0.674,0.198-1.169,0.275c-0.485,0.064-1.106,0.11-1.851,0.11
				c-0.744,0-1.367-0.047-1.852-0.11c-0.504-0.077-0.897-0.172-1.193-0.275c-0.303-0.101-0.508-0.245-0.625-0.423
				c-0.122-0.181-0.179-0.385-0.179-0.63V3.316c0-1.193,0.313-2.042,0.94-2.553c0.626-0.508,1.323-0.762,2.105-0.762h12.39
				c1.257,0,2.453,0.05,3.607,0.161c1.145,0.101,2.507,0.325,4.064,0.668c1.57,0.342,3.168,0.986,4.796,1.924
				c1.625,0.939,3.002,2.097,4.135,3.467c1.138,1.374,2.009,2.96,2.618,4.766C356.007,12.793,356.316,14.781,356.316,16.957z
				 M348.214,17.584c0-2.356-0.44-4.321-1.324-5.898c-0.876-1.583-1.966-2.766-3.264-3.54c-1.298-0.774-2.639-1.269-4.022-1.475
				c-1.392-0.204-2.745-0.313-4.055-0.313h-7.112v23.218h6.936c2.326,0,4.258-0.299,5.791-0.896c1.536-0.6,2.829-1.417,3.869-2.479
				c1.044-1.06,1.838-2.326,2.377-3.801C347.943,20.925,348.214,19.317,348.214,17.584z"/>
			<path class="st8" d="M374.524,56.699c0,0.236-0.058,0.447-0.178,0.621s-0.326,0.318-0.626,0.419
				c-0.295,0.107-0.684,0.194-1.179,0.271c-0.482,0.073-1.104,0.107-1.844,0.107c-0.71,0-1.32-0.034-1.823-0.107
				c-0.508-0.077-0.91-0.165-1.2-0.271c-0.296-0.101-0.508-0.245-0.627-0.419c-0.114-0.174-0.174-0.385-0.174-0.621V1.427
				c0-0.241,0.068-0.45,0.195-0.625c0.135-0.174,0.355-0.318,0.672-0.415c0.309-0.106,0.71-0.202,1.197-0.271
				c0.495-0.071,1.079-0.114,1.76-0.114c0.739,0,1.361,0.043,1.844,0.114c0.495,0.069,0.883,0.165,1.179,0.271
				c0.3,0.097,0.507,0.241,0.626,0.415c0.12,0.176,0.178,0.384,0.178,0.625V56.699z"/>
			<path class="st8" d="M418.768,54.822c0,0.587-0.026,1.09-0.084,1.492c-0.061,0.402-0.157,0.753-0.297,1.032
				c-0.13,0.282-0.291,0.495-0.486,0.621c-0.19,0.137-0.422,0.208-0.697,0.208h-25.596c-0.685,0-1.327-0.232-1.941-0.697
				c-0.609-0.462-0.914-1.277-0.914-2.44V1.435c0-0.237,0.052-0.449,0.175-0.626c0.123-0.178,0.329-0.322,0.622-0.423
				c0.304-0.106,0.706-0.198,1.214-0.271c0.502-0.071,1.115-0.114,1.838-0.114c0.74,0,1.357,0.043,1.852,0.114
				c0.495,0.073,0.884,0.165,1.184,0.271c0.299,0.101,0.508,0.245,0.625,0.423c0.121,0.178,0.182,0.39,0.182,0.626v50.07h20.758
				c0.276,0,0.508,0.067,0.697,0.204c0.195,0.131,0.356,0.327,0.486,0.58c0.14,0.254,0.237,0.587,0.297,1.01
				C418.742,53.713,418.768,54.22,418.768,54.822z"/>
			<path class="st8" d="M471.193,28.37c0,4.551-0.539,8.666-1.615,12.329c-1.075,3.657-2.68,6.77-4.817,9.345
				c-2.131,2.565-4.812,4.541-8.033,5.921c-3.222,1.382-6.991,2.07-11.282,2.07c-4.242,0-7.911-0.63-11.003-1.888
				c-3.091-1.269-5.653-3.104-7.671-5.519c-2.017-2.406-3.522-5.4-4.508-8.972c-0.987-3.575-1.488-7.684-1.488-12.327
				c0-4.444,0.545-8.479,1.615-12.119c1.074-3.625,2.69-6.714,4.841-9.257c2.148-2.545,4.834-4.498,8.061-5.878
				c3.226-1.378,6.98-2.072,11.281-2.072c4.153,0,7.768,0.626,10.851,1.873c3.074,1.252,5.638,3.075,7.689,5.467
				c2.044,2.399,3.566,5.362,4.57,8.888C470.686,19.758,471.193,23.804,471.193,28.37z M463.266,28.891
				c0-3.197-0.288-6.166-0.851-8.915c-0.57-2.739-1.514-5.121-2.833-7.142c-1.318-2.016-3.083-3.597-5.285-4.73
				c-2.204-1.126-4.935-1.696-8.184-1.696c-3.248,0-5.975,0.612-8.182,1.829c-2.203,1.223-3.993,2.842-5.371,4.877
				c-1.382,2.038-2.365,4.412-2.96,7.123c-0.597,2.72-0.892,5.573-0.892,8.563c0,3.311,0.274,6.361,0.828,9.156
				c0.55,2.778,1.481,5.185,2.781,7.2c1.309,2.023,3.059,3.595,5.245,4.708c2.188,1.12,4.938,1.679,8.254,1.679
				c3.272,0,6.03-0.609,8.266-1.832c2.229-1.221,4.03-2.862,5.393-4.942c1.36-2.081,2.334-4.483,2.912-7.206
				C462.969,34.833,463.266,31.939,463.266,28.891z"/>
			<path class="st8" d="M516.131,3.316c0,0.558-0.03,1.058-0.093,1.472c-0.055,0.424-0.156,0.757-0.293,1.011
				c-0.132,0.25-0.294,0.436-0.487,0.558c-0.196,0.119-0.408,0.177-0.646,0.177h-16.283v50.202c0,0.245-0.064,0.449-0.192,0.63
				c-0.113,0.178-0.321,0.322-0.62,0.423c-0.3,0.103-0.693,0.198-1.189,0.275c-0.485,0.064-1.108,0.11-1.857,0.11
				c-0.709,0-1.328-0.047-1.831-0.11c-0.507-0.077-0.913-0.172-1.208-0.275c-0.298-0.101-0.508-0.245-0.624-0.423
				c-0.12-0.181-0.18-0.385-0.18-0.63V6.534h-16.296c-0.229,0-0.444-0.058-0.638-0.177c-0.195-0.122-0.355-0.309-0.476-0.558
				c-0.111-0.254-0.214-0.587-0.289-1.011c-0.077-0.413-0.11-0.913-0.11-1.472c0-0.57,0.034-1.069,0.11-1.499
				c0.075-0.437,0.178-0.787,0.289-1.053c0.121-0.263,0.28-0.462,0.476-0.584c0.194-0.114,0.409-0.178,0.638-0.178h40.28
				c0.238,0,0.45,0.064,0.646,0.178c0.193,0.122,0.355,0.322,0.487,0.584c0.137,0.266,0.237,0.616,0.293,1.053
				C516.101,2.247,516.131,2.746,516.131,3.316z"/>
		</g>
		<g>
			<path class="st2" d="M0,0v25.665c0,0,19.433,9.25,29.297,25.788c0,0,4.352-36.523,28.785-51.453L0,0z"/>
			<linearGradient id="SVGID_1_" gradientUnits="userSpaceOnUse" x1="29.0409" y1="58.174" x2="29.0409" y2="24.994">
				<stop  offset="0" style="stop-color:#E37A27"/>
				<stop  offset="0.4725" style="stop-color:#F9A220"/>
			</linearGradient>
			<path class="st3" d="M0,46.811v11.363h26.11C26.11,58.174,16.163,47.582,0,46.811z M33.118,58.174h24.964v-33.18
				C43.954,28.821,33.118,58.174,33.118,58.174z"/>
			<linearGradient id="SVGID_2_" gradientUnits="userSpaceOnUse" x1="28.9263" y1="22.6562" x2="28.9263" y2="0.3821">
				<stop  offset="0" style="stop-color:#FFFFFF"/>
				<stop  offset="1" style="stop-color:#F9A220"/>
			</linearGradient>
			<path class="st4" d="M0.388,0.388l57.077-0.006c0,0-9.366,3.308-19.46,21.915c0,0-22.076,2.246-37.564-4.496L0.388,0.388z"/>
			<g>
				<linearGradient id="SVGID_3_" gradientUnits="userSpaceOnUse" x1="29.0409" y1="0.2297" x2="29.0409" y2="57.9445">
					<stop  offset="0" style="stop-color:#4A484A"/>
					<stop  offset="1" style="stop-color:#000000"/>
				</linearGradient>
				<path class="st5" d="M29.297,51.453C19.433,34.915,0,25.665,0,25.665v21.146c16.128,0.794,26.11,11.363,26.11,11.363h7.008
					c0,0,10.836-29.353,24.964-33.18V0l-0.074,0.045C33.641,15.003,29.297,51.453,29.297,51.453z"/>
			</g>
		</g>
	</g>
</g>
<g id="Stars">
</g>
</svg>
