<?xml version="1.0" encoding="utf-8"?>
<!-- Generator: Adobe Illustrator 19.1.0, SVG Export Plug-In . SVG Version: 6.00 Build 0)  -->
<svg version="1.1" xmlns="http://www.w3.org/2000/svg" xmlns:xlink="http://www.w3.org/1999/xlink" x="0px" y="0px"
	 viewBox="0 0 516.085 58.186" style="enable-background:new 0 0 516.085 58.186;" xml:space="preserve">
<style type="text/css">
	.st0{display:none;}
	.st1{display:inline;}
	.st2{fill:#F9A220;}
	.st3{fill:url(#SVGID_1_);}
	.st4{opacity:0.5;fill:url(#SVGID_2_);}
	.st5{fill:url(#SVGID_3_);}
	.st6{fill:#231F20;}
	.st7{fill:#FFFFFF;}
	.st8{fill:#929497;}
	.st9{fill:url(#SVGID_4_);}
	.st10{opacity:0.5;fill:url(#SVGID_5_);}
	.st11{fill:url(#SVGID_6_);}
	.st12{fill:url(#SVGID_7_);}
	.st13{opacity:0.5;fill:url(#SVGID_8_);}
	.st14{fill:url(#SVGID_9_);}
	.st15{fill:#00814E;}
	.st16{fill:#72B043;}
	.st17{fill:#C7C7C6;}
	.st18{fill:#F8CC1A;}
	.st19{fill:#F27425;}
	.st20{fill:#E02429;}
	.st21{fill:#E6E7E8;}
</style>
<g id="Black_Bg" class="st0">
</g>
<g id="Logo_on_black">
	<g>
		<g>
			<path class="st6" d="M119.272,3.316c0,0.558-0.029,1.059-0.088,1.472c-0.068,0.425-0.161,0.757-0.296,1.012
				c-0.135,0.25-0.3,0.436-0.487,0.558c-0.199,0.119-0.414,0.177-0.655,0.177h-16.289v50.214c0,0.245-0.063,0.449-0.181,0.63
				c-0.119,0.178-0.33,0.322-0.626,0.423c-0.301,0.103-0.693,0.198-1.184,0.275c-0.494,0.064-1.113,0.11-1.856,0.11
				c-0.715,0-1.329-0.047-1.836-0.11c-0.512-0.077-0.909-0.172-1.213-0.275c-0.296-0.101-0.5-0.245-0.622-0.423
				c-0.119-0.181-0.178-0.385-0.178-0.63V6.534H77.464c-0.238,0-0.449-0.058-0.648-0.177c-0.191-0.123-0.347-0.309-0.466-0.558
				c-0.122-0.254-0.219-0.587-0.296-1.012c-0.072-0.413-0.106-0.914-0.106-1.472c0-0.57,0.034-1.07,0.106-1.5
				c0.077-0.438,0.174-0.787,0.296-1.054c0.119-0.263,0.275-0.462,0.466-0.584C77.014,0.064,77.226,0,77.464,0h40.282
				c0.241,0,0.456,0.064,0.655,0.178c0.187,0.122,0.352,0.322,0.487,0.584c0.135,0.266,0.228,0.616,0.296,1.054
				C119.243,2.246,119.272,2.745,119.272,3.316z"/>
			<path class="st6" d="M168.686,56.748c0,0.245-0.042,0.449-0.144,0.63c-0.084,0.178-0.275,0.331-0.575,0.439
				c-0.301,0.127-0.714,0.211-1.252,0.277c-0.537,0.058-1.256,0.092-2.149,0.092c-0.778,0-1.412-0.034-1.903-0.092
				c-0.49-0.065-0.885-0.161-1.184-0.294c-0.3-0.129-0.533-0.316-0.694-0.561c-0.169-0.234-0.309-0.529-0.431-0.898l-5.32-13.648
				c-0.626-1.548-1.282-2.979-1.946-4.273c-0.673-1.294-1.472-2.411-2.398-3.357c-0.926-0.937-2.013-1.672-3.265-2.188
				c-1.252-0.524-2.757-0.786-4.517-0.786h-5.152v24.657c0,0.245-0.064,0.449-0.203,0.63c-0.135,0.178-0.338,0.322-0.626,0.423
				c-0.288,0.103-0.668,0.198-1.158,0.275c-0.495,0.064-1.112,0.11-1.862,0.11c-0.744,0-1.361-0.047-1.852-0.11
				c-0.495-0.077-0.892-0.172-1.193-0.275c-0.296-0.101-0.498-0.245-0.626-0.423c-0.114-0.181-0.173-0.385-0.173-0.63V3.138
				c0-1.167,0.301-1.979,0.918-2.444C131.59,0.234,132.236,0,132.925,0h12.304c1.463,0,2.681,0.043,3.65,0.114
				c0.968,0.069,1.843,0.161,2.618,0.251c2.237,0.384,4.212,0.997,5.93,1.831c1.714,0.833,3.156,1.891,4.323,3.18
				c1.159,1.278,2.035,2.754,2.614,4.407c0.583,1.649,0.872,3.482,0.872,5.478c0,1.947-0.263,3.68-0.787,5.219
				c-0.519,1.532-1.268,2.889-2.254,4.069c-0.985,1.18-2.16,2.199-3.536,3.067c-1.37,0.87-2.91,1.597-4.614,2.194
				c0.965,0.415,1.823,0.944,2.601,1.582c0.774,0.647,1.494,1.417,2.17,2.306c0.668,0.901,1.302,1.93,1.908,3.101
				c0.588,1.15,1.188,2.47,1.785,3.937l5.19,12.748c0.419,1.075,0.685,1.833,0.808,2.259
				C168.618,56.178,168.686,56.511,168.686,56.748z M157.092,16.068c0-2.267-0.508-4.187-1.523-5.752
				c-1.015-1.561-2.716-2.691-5.101-3.376c-0.749-0.21-1.59-0.357-2.529-0.452c-0.943-0.089-2.17-0.131-3.693-0.131h-6.492v19.515
				h7.521c2.03,0,3.776-0.251,5.261-0.741c1.476-0.496,2.707-1.18,3.688-2.061c0.985-0.883,1.71-1.915,2.174-3.108
				C156.86,18.77,157.092,17.469,157.092,16.068z"/>
			<path class="st6" d="M220.265,36.218c0,3.463-0.498,6.557-1.514,9.272c-1.011,2.723-2.458,5.016-4.344,6.897
				c-1.878,1.878-4.17,3.299-6.873,4.268c-2.694,0.978-5.769,1.461-9.203,1.461c-3.148,0-6.006-0.456-8.595-1.367
				c-2.579-0.909-4.8-2.253-6.653-4.034c-1.849-1.777-3.27-4.006-4.268-6.667c-0.998-2.676-1.497-5.76-1.497-9.249V1.413
				c0-0.237,0.055-0.437,0.173-0.622c0.118-0.174,0.325-0.312,0.613-0.414c0.296-0.102,0.676-0.194,1.151-0.263
				C179.721,0.037,180.338,0,181.104,0c0.706,0,1.307,0.037,1.806,0.114c0.495,0.069,0.888,0.161,1.167,0.263
				c0.275,0.102,0.478,0.24,0.597,0.414c0.118,0.185,0.177,0.385,0.177,0.622v34.45c0,2.648,0.321,4.952,0.965,6.916
				c0.651,1.971,1.582,3.607,2.799,4.913c1.214,1.309,2.686,2.298,4.408,2.955c1.713,0.658,3.646,0.993,5.795,0.993
				c2.199,0,4.161-0.318,5.874-0.976c1.725-0.64,3.176-1.608,4.37-2.902c1.188-1.296,2.094-2.897,2.723-4.81
				c0.639-1.898,0.952-4.131,0.952-6.689V1.413c0-0.237,0.058-0.437,0.178-0.622c0.118-0.174,0.322-0.312,0.613-0.414
				c0.296-0.102,0.685-0.194,1.167-0.263c0.486-0.077,1.1-0.114,1.832-0.114c0.706,0,1.298,0.037,1.78,0.114
				c0.487,0.069,0.867,0.161,1.146,0.263c0.284,0.102,0.486,0.24,0.621,0.414c0.132,0.185,0.191,0.385,0.191,0.622V36.218z"/>
			<path class="st6" d="M263.69,41.475c0,2.657-0.495,5.018-1.468,7.082c-0.977,2.066-2.33,3.817-4.057,5.255
				c-1.733,1.444-3.772,2.53-6.115,3.258c-2.348,0.724-4.864,1.092-7.576,1.092c-1.895,0-3.645-0.157-5.256-0.488
				c-1.62-0.316-3.059-0.705-4.327-1.174c-1.265-0.466-2.331-0.944-3.189-1.438c-0.858-0.496-1.45-0.915-1.781-1.266
				c-0.343-0.35-0.592-0.799-0.748-1.331c-0.161-0.541-0.242-1.264-0.242-2.166c0-0.638,0.029-1.167,0.089-1.59
				c0.055-0.423,0.144-0.767,0.262-1.029c0.114-0.262,0.262-0.443,0.431-0.546c0.177-0.101,0.385-0.151,0.613-0.151
				c0.406,0,0.985,0.251,1.726,0.741c0.744,0.498,1.695,1.04,2.863,1.614c1.163,0.589,2.568,1.135,4.208,1.633
				c1.646,0.512,3.545,0.77,5.698,0.77c1.628,0,3.126-0.211,4.479-0.655c1.353-0.439,2.518-1.057,3.498-1.853
				c0.964-0.804,1.721-1.786,2.245-2.947c0.516-1.163,0.778-2.487,0.778-3.972c0-1.606-0.363-2.977-1.082-4.107
				c-0.732-1.137-1.688-2.132-2.885-2.992c-1.197-0.857-2.554-1.644-4.086-2.354c-1.523-0.714-3.092-1.446-4.69-2.186
				c-1.604-0.737-3.164-1.562-4.674-2.467c-1.515-0.901-2.864-1.962-4.057-3.185c-1.197-1.223-2.166-2.661-2.91-4.301
				c-0.741-1.642-1.112-3.617-1.112-5.913c0-2.364,0.431-4.462,1.294-6.31c0.851-1.853,2.046-3.401,3.577-4.653
				c1.528-1.248,3.347-2.208,5.458-2.859c2.105-0.66,4.389-0.986,6.83-0.986c1.253,0,2.508,0.114,3.781,0.325
				c1.261,0.221,2.457,0.516,3.577,0.876c1.122,0.364,2.117,0.774,2.995,1.218c0.863,0.452,1.447,0.82,1.718,1.1
				c0.28,0.275,0.461,0.49,0.545,0.651c0.094,0.161,0.166,0.368,0.221,0.61c0.058,0.249,0.106,0.546,0.131,0.9
				c0.029,0.347,0.05,0.796,0.05,1.345c0,0.529-0.03,0.994-0.072,1.401c-0.039,0.41-0.11,0.757-0.199,1.032
				c-0.085,0.27-0.212,0.482-0.369,0.609c-0.16,0.126-0.342,0.198-0.544,0.198c-0.327,0-0.82-0.207-1.511-0.617
				c-0.681-0.406-1.514-0.858-2.508-1.375c-0.99-0.509-2.166-0.969-3.511-1.396c-1.358-0.418-2.881-0.635-4.568-0.635
				c-1.568,0-2.94,0.217-4.102,0.635c-1.163,0.427-2.128,0.99-2.88,1.678c-0.762,0.703-1.323,1.532-1.705,2.487
				c-0.376,0.965-0.567,1.99-0.567,3.063c0,1.569,0.364,2.919,1.092,4.06c0.728,1.137,1.695,2.141,2.901,3.011
				c1.215,0.872,2.589,1.676,4.129,2.397c1.543,0.728,3.117,1.468,4.715,2.214c1.603,0.739,3.167,1.556,4.716,2.439
				c1.543,0.894,2.913,1.934,4.132,3.144c1.2,1.214,2.174,2.635,2.914,4.284C263.318,37.301,263.69,39.238,263.69,41.475z"/>
			<path class="st6" d="M311.502,3.308c0,0.566-0.03,1.057-0.089,1.468c-0.064,0.419-0.156,0.76-0.291,1.01
				c-0.128,0.254-0.302,0.439-0.492,0.558c-0.191,0.122-0.411,0.177-0.649,0.177H293.72v50.13c0,0.238-0.058,0.449-0.181,0.623
				c-0.116,0.181-0.327,0.325-0.624,0.43c-0.299,0.101-0.689,0.191-1.183,0.262c-0.496,0.077-1.114,0.116-1.853,0.116
				c-0.719,0-1.332-0.039-1.831-0.116c-0.513-0.071-0.91-0.161-1.206-0.262c-0.3-0.105-0.507-0.249-0.629-0.43
				c-0.116-0.174-0.179-0.385-0.179-0.623V6.521h-16.261c-0.236,0-0.453-0.054-0.648-0.177c-0.194-0.119-0.351-0.304-0.469-0.558
				c-0.114-0.25-0.215-0.591-0.293-1.01c-0.072-0.411-0.113-0.902-0.113-1.468c0-0.563,0.041-1.071,0.113-1.492
				c0.078-0.438,0.179-0.791,0.293-1.054c0.119-0.263,0.275-0.462,0.469-0.584C269.321,0.064,269.537,0,269.773,0h40.208
				c0.238,0,0.458,0.064,0.649,0.178c0.19,0.122,0.364,0.322,0.492,0.584c0.135,0.263,0.227,0.616,0.291,1.054
				C311.472,2.238,311.502,2.745,311.502,3.308z"/>
			<path class="st8" d="M356.234,16.96c0,2.897-0.477,5.507-1.438,7.838c-0.958,2.326-2.317,4.314-4.095,5.947
				c-1.773,1.646-3.951,2.915-6.535,3.808c-2.581,0.898-5.654,1.341-9.243,1.341h-6.575v20.855c0,0.245-0.073,0.449-0.204,0.63
				c-0.135,0.178-0.341,0.322-0.625,0.423c-0.28,0.103-0.674,0.198-1.169,0.275c-0.485,0.064-1.106,0.11-1.851,0.11
				c-0.744,0-1.367-0.047-1.852-0.11c-0.504-0.077-0.898-0.172-1.193-0.275c-0.303-0.101-0.508-0.245-0.626-0.423
				c-0.122-0.181-0.179-0.385-0.179-0.63V3.316c0-1.193,0.313-2.042,0.94-2.554C322.216,0.254,322.912,0,323.695,0h12.393
				c1.258,0,2.454,0.051,3.607,0.161c1.145,0.101,2.508,0.325,4.065,0.669c1.57,0.342,3.169,0.987,4.797,1.924
				c1.625,0.939,3.002,2.097,4.136,3.468c1.138,1.374,2.009,2.96,2.618,4.767C355.924,12.795,356.234,14.783,356.234,16.96z
				 M348.13,17.586c0-2.356-0.44-4.322-1.324-5.899c-0.876-1.583-1.966-2.767-3.265-3.541c-1.299-0.774-2.64-1.269-4.023-1.475
				c-1.392-0.204-2.745-0.313-4.056-0.313h-7.114v23.224h6.937c2.326,0,4.259-0.299,5.793-0.896c1.536-0.6,2.829-1.418,3.87-2.48
				c1.044-1.06,1.838-2.326,2.378-3.802C347.859,20.928,348.13,19.32,348.13,17.586z"/>
			<path class="st8" d="M374.446,56.711c0,0.236-0.058,0.447-0.178,0.621c-0.12,0.174-0.326,0.318-0.626,0.419
				c-0.296,0.107-0.684,0.194-1.179,0.271c-0.482,0.073-1.104,0.107-1.844,0.107c-0.711,0-1.32-0.034-1.823-0.107
				c-0.508-0.077-0.91-0.165-1.201-0.271c-0.296-0.101-0.508-0.245-0.627-0.419c-0.114-0.174-0.174-0.385-0.174-0.621V1.426
				c0-0.241,0.068-0.45,0.195-0.626c0.135-0.174,0.355-0.318,0.672-0.415c0.309-0.106,0.711-0.202,1.197-0.271
				C369.353,0.043,369.937,0,370.619,0c0.74,0,1.361,0.043,1.844,0.114c0.495,0.069,0.884,0.165,1.179,0.271
				c0.3,0.097,0.507,0.241,0.626,0.415c0.12,0.176,0.178,0.384,0.178,0.626V56.711z"/>
			<path class="st8" d="M418.7,54.833c0,0.587-0.026,1.09-0.084,1.492c-0.061,0.402-0.157,0.754-0.297,1.032
				c-0.13,0.282-0.291,0.496-0.486,0.621c-0.19,0.136-0.422,0.208-0.698,0.208h-25.602c-0.685,0-1.327-0.232-1.941-0.698
				c-0.609-0.462-0.914-1.277-0.914-2.44V1.434c0-0.237,0.052-0.449,0.175-0.626c0.123-0.178,0.329-0.322,0.622-0.423
				c0.304-0.106,0.706-0.198,1.215-0.271C391.191,0.043,391.804,0,392.527,0c0.741,0,1.358,0.043,1.852,0.114
				c0.495,0.073,0.885,0.165,1.185,0.271c0.299,0.101,0.508,0.245,0.626,0.423c0.122,0.178,0.182,0.39,0.182,0.626v50.081h20.763
				c0.276,0,0.508,0.067,0.698,0.204c0.195,0.131,0.356,0.327,0.486,0.58c0.14,0.254,0.237,0.587,0.297,1.01
				C418.674,53.724,418.7,54.231,418.7,54.833z"/>
			<path class="st8" d="M471.138,28.375c0,4.552-0.54,8.668-1.615,12.331c-1.075,3.658-2.681,6.772-4.818,9.347
				c-2.132,2.566-4.813,4.543-8.035,5.923c-3.223,1.382-6.992,2.07-11.285,2.07c-4.243,0-7.912-0.63-11.006-1.889
				c-3.091-1.27-5.654-3.104-7.673-5.521c-2.017-2.407-3.523-5.401-4.509-8.975c-0.987-3.576-1.489-7.686-1.489-12.33
				c0-4.445,0.545-8.481,1.616-12.122c1.074-3.626,2.69-6.715,4.843-9.259c2.149-2.546,4.835-4.499,8.063-5.88
				C438.457,0.694,442.212,0,446.513,0c4.154,0,7.77,0.626,10.853,1.874c3.074,1.252,5.639,3.075,7.691,5.468
				c2.045,2.399,3.567,5.363,4.571,8.89C470.63,19.761,471.138,23.808,471.138,28.375z M463.208,28.897
				c0-3.198-0.288-6.168-0.851-8.917c-0.57-2.74-1.515-5.122-2.833-7.144c-1.318-2.016-3.084-3.598-5.287-4.731
				c-2.205-1.126-4.936-1.696-8.185-1.696c-3.248,0-5.977,0.612-8.184,1.83c-2.204,1.223-3.994,2.843-5.372,4.878
				c-1.382,2.038-2.366,4.413-2.96,7.125c-0.597,2.721-0.892,5.575-0.892,8.565c0,3.312,0.274,6.362,0.828,9.158
				c0.55,2.779,1.481,5.186,2.782,7.202c1.309,2.023,3.059,3.596,5.247,4.709c2.189,1.12,4.939,1.679,8.255,1.679
				c3.273,0,6.031-0.61,8.268-1.833c2.229-1.221,4.031-2.863,5.394-4.943c1.36-2.081,2.335-4.485,2.913-7.207
				C462.911,34.84,463.208,31.945,463.208,28.897z"/>
			<path class="st8" d="M516.085,3.316c0,0.558-0.03,1.059-0.093,1.472c-0.055,0.425-0.156,0.757-0.293,1.012
				c-0.132,0.25-0.295,0.436-0.487,0.558c-0.196,0.119-0.408,0.177-0.646,0.177h-16.287v50.214c0,0.245-0.064,0.449-0.192,0.63
				c-0.113,0.178-0.321,0.322-0.62,0.423c-0.3,0.103-0.693,0.198-1.189,0.275c-0.485,0.064-1.108,0.11-1.858,0.11
				c-0.709,0-1.328-0.047-1.831-0.11c-0.507-0.077-0.914-0.172-1.208-0.275c-0.298-0.101-0.508-0.245-0.625-0.423
				c-0.12-0.181-0.18-0.385-0.18-0.63V6.534h-16.3c-0.229,0-0.444-0.058-0.639-0.177c-0.195-0.123-0.355-0.309-0.476-0.558
				c-0.111-0.254-0.214-0.587-0.289-1.012c-0.077-0.413-0.11-0.914-0.11-1.472c0-0.57,0.034-1.07,0.11-1.5
				c0.075-0.438,0.178-0.787,0.289-1.054c0.121-0.263,0.281-0.462,0.476-0.584C473.832,0.064,474.047,0,474.276,0h40.289
				c0.238,0,0.45,0.064,0.646,0.178c0.193,0.122,0.355,0.322,0.487,0.584c0.137,0.266,0.237,0.616,0.293,1.054
				C516.055,2.246,516.085,2.745,516.085,3.316z"/>
		</g>
		<g>
			<path class="st2" d="M0,0.012v25.665c0,0,19.433,9.25,29.297,25.788c0,0,4.352-36.523,28.785-51.453L0,0.012z"/>
			<linearGradient id="SVGID_1_" gradientUnits="userSpaceOnUse" x1="29.0409" y1="58.1864" x2="29.0409" y2="25.0063">
				<stop  offset="0" style="stop-color:#E37A27"/>
				<stop  offset="0.4725" style="stop-color:#F9A220"/>
			</linearGradient>
			<path class="st3" d="M0,46.824v11.363h26.11C26.11,58.186,16.163,47.594,0,46.824z M33.118,58.186h24.964v-33.18
				C43.954,28.833,33.118,58.186,33.118,58.186z"/>
			<linearGradient id="SVGID_2_" gradientUnits="userSpaceOnUse" x1="28.9263" y1="22.6685" x2="28.9263" y2="0.3944">
				<stop  offset="0" style="stop-color:#FFFFFF"/>
				<stop  offset="1" style="stop-color:#F9A220"/>
			</linearGradient>
			<path class="st4" d="M0.388,0.401l57.077-0.006c0,0-9.366,3.308-19.46,21.915c0,0-22.076,2.246-37.564-4.496L0.388,0.401z"/>
			<g>
				<linearGradient id="SVGID_3_" gradientUnits="userSpaceOnUse" x1="29.0409" y1="0.242" x2="29.0409" y2="57.9568">
					<stop  offset="0" style="stop-color:#4A484A"/>
					<stop  offset="1" style="stop-color:#000000"/>
				</linearGradient>
				<path class="st5" d="M29.297,51.466C19.433,34.927,0,25.677,0,25.677v21.146c16.128,0.794,26.11,11.363,26.11,11.363h7.008
					c0,0,10.836-29.353,24.964-33.18V0.012l-0.074,0.045C33.641,15.015,29.297,51.466,29.297,51.466z"/>
			</g>
		</g>
	</g>
</g>
<g id="Stars">
</g>
</svg>
